<svg width="166" height="28" viewBox="0 0 166 28" fill="none" xmlns="http://www.w3.org/2000/svg">
<path d="M31.3442 1.512V27H23.3882V14.292L19.4642 27H12.6242L8.7002 14.292V27H0.708203V1.512H10.5002L16.1162 16.812L21.5882 1.512H31.3442ZM52.0144 13.932C53.5504 14.292 54.7384 15.036 55.5784 16.164C56.4424 17.268 56.8744 18.552 56.8744 20.016C56.8744 22.248 56.1304 23.976 54.6424 25.2C53.1784 26.4 51.0664 27 48.3064 27H34.9504V1.512H47.9464C50.5384 1.512 52.5784 2.076 54.0664 3.204C55.5544 4.332 56.2984 5.976 56.2984 8.136C56.2984 9.624 55.9024 10.884 55.1104 11.916C54.3424 12.924 53.3104 13.596 52.0144 13.932ZM42.9424 11.448H46.0384C46.7584 11.448 47.2864 11.304 47.6224 11.016C47.9824 10.728 48.1624 10.284 48.1624 9.684C48.1624 9.06 47.9824 8.604 47.6224 8.316C47.2864 8.004 46.7584 7.848 46.0384 7.848H42.9424V11.448ZM46.5784 20.592C47.2984 20.592 47.8264 20.46 48.1624 20.196C48.5224 19.908 48.7024 19.452 48.7024 18.828C48.7024 17.604 47.9944 16.992 46.5784 16.992H42.9424V20.592H46.5784ZM69.5318 27.252C66.4838 27.252 63.9638 26.544 61.9718 25.128C60.0038 23.688 58.9358 21.588 58.7678 18.828H67.2638C67.3838 20.292 68.0318 21.024 69.2078 21.024C69.6398 21.024 69.9998 20.928 70.2878 20.736C70.5998 20.52 70.7558 20.196 70.7558 19.764C70.7558 19.164 70.4318 18.684 69.7838 18.324C69.1358 17.94 68.1278 17.508 66.7598 17.028C65.1278 16.452 63.7718 15.888 62.6918 15.336C61.6358 14.784 60.7238 13.98 59.9558 12.924C59.1878 11.868 58.8158 10.512 58.8398 8.856C58.8398 7.2 59.2598 5.796 60.0998 4.644C60.9638 3.468 62.1278 2.58 63.5918 1.98C65.0798 1.38 66.7478 1.08 68.5958 1.08C71.7158 1.08 74.1878 1.8 76.0118 3.24C77.8598 4.68 78.8318 6.708 78.9278 9.324H70.3238C70.2998 8.604 70.1198 8.088 69.7838 7.776C69.4478 7.464 69.0398 7.308 68.5598 7.308C68.2238 7.308 67.9478 7.428 67.7318 7.668C67.5158 7.884 67.4078 8.196 67.4078 8.604C67.4078 9.18 67.7198 9.66 68.3438 10.044C68.9918 10.404 70.0118 10.848 71.4038 11.376C73.0118 11.976 74.3318 12.552 75.3638 13.104C76.4198 13.656 77.3318 14.424 78.0998 15.408C78.8678 16.392 79.2518 17.628 79.2518 19.116C79.2518 20.676 78.8678 22.08 78.0998 23.328C77.3318 24.552 76.2158 25.512 74.7518 26.208C73.2878 26.904 71.5478 27.252 69.5318 27.252ZM94.6958 20.196V27H91.6718C86.1038 27 83.3198 24.228 83.3198 18.684V13.356H80.7998V6.696H83.3198V1.8H91.3118V6.696H94.6238V13.356H91.3118V18.828C91.3118 19.308 91.4198 19.656 91.6358 19.872C91.8758 20.088 92.2598 20.196 92.7878 20.196H94.6958ZM107.387 27.252C105.347 27.252 103.511 26.832 101.879 25.992C100.247 25.152 98.9635 23.952 98.0275 22.392C97.1155 20.808 96.6595 18.96 96.6595 16.848C96.6595 14.736 97.1155 12.9 98.0275 11.34C98.9635 9.756 100.247 8.544 101.879 7.704C103.511 6.864 105.347 6.444 107.387 6.444C109.427 6.444 111.263 6.864 112.895 7.704C114.527 8.544 115.799 9.756 116.711 11.34C117.647 12.9 118.115 14.736 118.115 16.848C118.115 18.96 117.647 20.808 116.711 22.392C115.799 23.952 114.527 25.152 112.895 25.992C111.263 26.832 109.427 27.252 107.387 27.252ZM107.387 20.34C108.131 20.34 108.755 20.052 109.259 19.476C109.763 18.876 110.015 18 110.015 16.848C110.015 15.696 109.763 14.832 109.259 14.256C108.755 13.656 108.131 13.356 107.387 13.356C106.643 13.356 106.019 13.656 105.515 14.256C105.011 14.832 104.759 15.696 104.759 16.848C104.759 18 104.999 18.876 105.479 19.476C105.983 20.052 106.619 20.34 107.387 20.34ZM119.546 16.848C119.546 14.736 119.978 12.9 120.842 11.34C121.73 9.756 122.954 8.544 124.514 7.704C126.098 6.864 127.898 6.444 129.914 6.444C132.554 6.444 134.774 7.188 136.574 8.676C138.398 10.164 139.55 12.228 140.03 14.868H131.57C131.258 13.812 130.646 13.284 129.734 13.284C129.086 13.284 128.57 13.584 128.186 14.184C127.826 14.784 127.646 15.672 127.646 16.848C127.646 18.024 127.826 18.912 128.186 19.512C128.57 20.112 129.086 20.412 129.734 20.412C130.646 20.412 131.258 19.884 131.57 18.828H140.03C139.55 21.468 138.398 23.532 136.574 25.02C134.774 26.508 132.554 27.252 129.914 27.252C127.898 27.252 126.098 26.832 124.514 25.992C122.954 25.152 121.73 23.952 120.842 22.392C119.978 20.808 119.546 18.96 119.546 16.848ZM155.56 27L150.556 18.9V27H142.564V0.36H150.556V14.292L155.632 6.696H164.92L157.324 16.92L165.1 27H155.56Z" fill="#1665CE"/>
</svg>
